<svg width="500" height="67" viewBox="0 0 500 67" fill="none" xmlns="http://www.w3.org/2000/svg">
<path d="M127.64 48.555C128.19 49.3617 128.465 50.15 128.465 50.92C128.465 51.9467 128.043 52.79 127.2 53.45C126.393 54.11 125.44 54.44 124.34 54.44C123.643 54.44 122.965 54.275 122.305 53.945C121.645 53.615 121.095 53.1017 120.655 52.405L113.395 41.625C112.772 40.6717 112.112 39.9933 111.415 39.59C110.718 39.15 109.838 38.93 108.775 38.93H104.32V50.04C104.32 51.36 103.935 52.405 103.165 53.175C102.432 53.945 101.423 54.33 100.14 54.33C98.82 54.33 97.775 53.945 97.005 53.175C96.235 52.405 95.85 51.36 95.85 50.04V19.24C95.85 17.9567 96.1983 16.9667 96.895 16.27C97.5917 15.5733 98.5817 15.225 99.865 15.225H113.67C118.217 15.225 121.645 16.2333 123.955 18.25C126.302 20.23 127.475 23.1083 127.475 26.885C127.475 29.855 126.65 32.33 125 34.31C123.35 36.29 121.022 37.5917 118.015 38.215C119.115 38.435 120.087 38.875 120.93 39.535C121.81 40.1583 122.653 41.075 123.46 42.285L127.64 48.555ZM112.405 32.44C114.862 32.44 116.64 32.0183 117.74 31.175C118.84 30.295 119.39 28.9383 119.39 27.105C119.39 25.235 118.84 23.8783 117.74 23.035C116.64 22.1917 114.862 21.77 112.405 21.77H104.21V32.44H112.405Z" fill="white"/>
<path d="M155.424 45.97C156.158 45.97 156.744 46.2633 157.184 46.85C157.661 47.4367 157.899 48.1883 157.899 49.105C157.899 49.7283 157.716 50.315 157.349 50.865C156.983 51.3783 156.469 51.8183 155.809 52.185C154.563 52.845 153.114 53.395 151.464 53.835C149.814 54.2383 148.293 54.44 146.899 54.44C143.966 54.44 141.399 53.8717 139.199 52.735C137.036 51.5983 135.368 49.985 134.194 47.895C133.021 45.7683 132.434 43.275 132.434 40.415C132.434 37.665 133.003 35.2267 134.139 33.1C135.276 30.9733 136.853 29.3233 138.869 28.15C140.886 26.94 143.178 26.335 145.744 26.335C148.201 26.335 150.346 26.885 152.179 27.985C154.049 29.0483 155.498 30.5883 156.524 32.605C157.551 34.585 158.064 36.9133 158.064 39.59C158.064 40.3967 157.863 41.02 157.459 41.46C157.093 41.8633 156.561 42.065 155.864 42.065H140.464C140.721 44.2283 141.381 45.805 142.444 46.795C143.508 47.7483 145.029 48.225 147.009 48.225C148.073 48.225 149.026 48.0967 149.869 47.84C150.713 47.5833 151.648 47.235 152.674 46.795C153.188 46.575 153.683 46.3917 154.159 46.245C154.636 46.0617 155.058 45.97 155.424 45.97ZM145.964 32.055C144.388 32.055 143.123 32.5683 142.169 33.595C141.216 34.585 140.648 36.0333 140.464 37.94H151.079C150.969 35.9967 150.474 34.53 149.594 33.54C148.751 32.55 147.541 32.055 145.964 32.055Z" fill="white"/>
<path d="M175.236 26.335C179.196 26.335 182.129 27.3067 184.036 29.25C185.942 31.1567 186.896 34.09 186.896 38.05V50.48C186.896 51.69 186.547 52.6433 185.851 53.34C185.154 54 184.182 54.33 182.936 54.33C181.762 54.33 180.809 53.9817 180.076 53.285C179.379 52.5517 179.031 51.6167 179.031 50.48V50.095C178.481 51.4517 177.564 52.515 176.281 53.285C174.997 54.055 173.494 54.44 171.771 54.44C169.937 54.44 168.269 54.0733 166.766 53.34C165.299 52.6067 164.126 51.58 163.246 50.26C162.402 48.94 161.981 47.4733 161.981 45.86C161.981 43.88 162.476 42.3217 163.466 41.185C164.492 40.0483 166.124 39.2233 168.361 38.71C170.597 38.1967 173.659 37.94 177.546 37.94H178.976V36.95C178.976 35.41 178.627 34.2917 177.931 33.595C177.271 32.8983 176.152 32.55 174.576 32.55C172.999 32.55 170.726 33.1 167.756 34.2C166.912 34.6033 166.197 34.805 165.611 34.805C164.804 34.805 164.162 34.53 163.686 33.98C163.209 33.3933 162.971 32.6417 162.971 31.725C162.971 30.9917 163.136 30.3867 163.466 29.91C163.796 29.4333 164.327 28.9933 165.061 28.59C166.344 27.8933 167.902 27.3433 169.736 26.94C171.606 26.5367 173.439 26.335 175.236 26.335ZM173.586 48.72C175.199 48.72 176.501 48.1883 177.491 47.125C178.481 46.025 178.976 44.6133 178.976 42.89V41.955H178.041C175.071 41.955 172.981 42.1933 171.771 42.67C170.597 43.1467 170.011 44.0083 170.011 45.255C170.011 46.2817 170.341 47.125 171.001 47.785C171.697 48.4083 172.559 48.72 173.586 48.72Z" fill="white"/>
<path d="M205.59 54.44C202.803 54.44 200.365 53.8717 198.275 52.735C196.185 51.5983 194.572 49.985 193.435 47.895C192.335 45.805 191.785 43.3483 191.785 40.525C191.785 37.7017 192.372 35.2267 193.545 33.1C194.755 30.9367 196.442 29.2683 198.605 28.095C200.768 26.9217 203.262 26.335 206.085 26.335C207.552 26.335 209.018 26.5367 210.485 26.94C211.988 27.3433 213.327 27.9117 214.5 28.645C215.637 29.3417 216.205 30.3683 216.205 31.725C216.205 32.6783 215.985 33.4667 215.545 34.09C215.105 34.6767 214.518 34.97 213.785 34.97C213.308 34.97 212.85 34.8967 212.41 34.75C212.007 34.5667 211.457 34.31 210.76 33.98C209.99 33.5767 209.293 33.265 208.67 33.045C208.083 32.825 207.405 32.715 206.635 32.715C204.582 32.715 203.005 33.375 201.905 34.695C200.842 35.9783 200.31 37.8667 200.31 40.36C200.31 42.8533 200.842 44.76 201.905 46.08C203.005 47.4 204.582 48.06 206.635 48.06C207.405 48.06 208.083 47.9683 208.67 47.785C209.257 47.565 209.972 47.235 210.815 46.795C211.512 46.465 212.062 46.2267 212.465 46.08C212.868 45.8967 213.308 45.805 213.785 45.805C214.482 45.805 215.05 46.1167 215.49 46.74C215.967 47.3633 216.205 48.1517 216.205 49.105C216.205 50.4617 215.637 51.47 214.5 52.13C213.327 52.8633 211.97 53.4317 210.43 53.835C208.89 54.2383 207.277 54.44 205.59 54.44Z" fill="white"/>
<path d="M235.566 48.28C236.666 48.3533 237.473 48.6283 237.986 49.105C238.5 49.5817 238.756 50.2783 238.756 51.195C238.756 52.2583 238.335 53.065 237.491 53.615C236.648 54.165 235.438 54.385 233.861 54.275L232.321 54.165C225.905 53.6517 222.696 50.2967 222.696 44.1V33.21H220.496C219.286 33.21 218.37 32.9533 217.746 32.44C217.123 31.89 216.811 31.12 216.811 30.13C216.811 29.1033 217.123 28.3333 217.746 27.82C218.37 27.27 219.286 26.995 220.496 26.995H222.696V22.705C222.696 21.495 223.063 20.5417 223.796 19.845C224.566 19.1483 225.593 18.8 226.876 18.8C228.16 18.8 229.168 19.1483 229.901 19.845C230.635 20.5417 231.001 21.495 231.001 22.705V26.995H234.851C237.345 26.995 238.591 28.04 238.591 30.13C238.591 31.12 238.28 31.89 237.656 32.44C237.033 32.9533 236.098 33.21 234.851 33.21H231.001V44.705C231.001 45.805 231.258 46.6483 231.771 47.235C232.285 47.785 233.036 48.0967 234.026 48.17L235.566 48.28Z" fill="white"/>
<path d="M246.001 54.33C244.791 54.33 243.783 54 242.976 53.34C242.206 52.68 241.821 51.7083 241.821 50.425V30.35C241.821 29.0667 242.224 28.095 243.031 27.435C243.838 26.775 244.828 26.445 246.001 26.445C247.174 26.445 248.146 26.775 248.916 27.435C249.723 28.095 250.126 29.0667 250.126 30.35V50.425C250.126 51.7083 249.723 52.68 248.916 53.34C248.146 54 247.174 54.33 246.001 54.33ZM246.001 22.045C244.534 22.045 243.379 21.6783 242.536 20.945C241.693 20.175 241.271 19.1483 241.271 17.865C241.271 16.5817 241.693 15.5733 242.536 14.84C243.379 14.1067 244.534 13.74 246.001 13.74C247.431 13.74 248.568 14.125 249.411 14.895C250.291 15.6283 250.731 16.6183 250.731 17.865C250.731 19.1483 250.309 20.175 249.466 20.945C248.623 21.6783 247.468 22.045 246.001 22.045Z" fill="white"/>
<path d="M274.909 28.81C275.276 28.04 275.752 27.4717 276.339 27.105C276.962 26.7017 277.622 26.5 278.319 26.5C279.346 26.5 280.262 26.8483 281.069 27.545C281.876 28.205 282.279 29.0117 282.279 29.965C282.279 30.515 282.151 31.0467 281.894 31.56L271.994 51.855C271.627 52.6617 271.077 53.285 270.344 53.725C269.611 54.1283 268.822 54.33 267.979 54.33C267.136 54.33 266.347 54.1283 265.614 53.725C264.881 53.285 264.312 52.6617 263.909 51.855L254.009 31.56C253.789 31.0467 253.679 30.5517 253.679 30.075C253.679 29.085 254.101 28.2417 254.944 27.545C255.824 26.8483 256.796 26.5 257.859 26.5C258.629 26.5 259.326 26.7017 259.949 27.105C260.572 27.4717 261.067 28.04 261.434 28.81L268.199 43.605L274.909 28.81Z" fill="white"/>
<path d="M306.997 45.97C307.73 45.97 308.317 46.2633 308.757 46.85C309.233 47.4367 309.472 48.1883 309.472 49.105C309.472 49.7283 309.288 50.315 308.922 50.865C308.555 51.3783 308.042 51.8183 307.382 52.185C306.135 52.845 304.687 53.395 303.037 53.835C301.387 54.2383 299.865 54.44 298.472 54.44C295.538 54.44 292.972 53.8717 290.772 52.735C288.608 51.5983 286.94 49.985 285.767 47.895C284.593 45.7683 284.007 43.275 284.007 40.415C284.007 37.665 284.575 35.2267 285.712 33.1C286.848 30.9733 288.425 29.3233 290.442 28.15C292.458 26.94 294.75 26.335 297.317 26.335C299.773 26.335 301.918 26.885 303.752 27.985C305.622 29.0483 307.07 30.5883 308.097 32.605C309.123 34.585 309.637 36.9133 309.637 39.59C309.637 40.3967 309.435 41.02 309.032 41.46C308.665 41.8633 308.133 42.065 307.437 42.065H292.037C292.293 44.2283 292.953 45.805 294.017 46.795C295.08 47.7483 296.602 48.225 298.582 48.225C299.645 48.225 300.598 48.0967 301.442 47.84C302.285 47.5833 303.22 47.235 304.247 46.795C304.76 46.575 305.255 46.3917 305.732 46.245C306.208 46.0617 306.63 45.97 306.997 45.97ZM297.537 32.055C295.96 32.055 294.695 32.5683 293.742 33.595C292.788 34.585 292.22 36.0333 292.037 37.94H302.652C302.542 35.9967 302.047 34.53 301.167 33.54C300.323 32.55 299.113 32.055 297.537 32.055Z" fill="white"/>
<path d="M340.228 33.925C342.465 34.585 344.188 35.74 345.398 37.39C346.645 39.0033 347.268 41.0017 347.268 43.385C347.268 46.6483 346.058 49.2333 343.638 51.14C341.255 53.0467 337.955 54 333.738 54H319.328C318.045 54 317.055 53.6517 316.358 52.955C315.661 52.2583 315.313 51.2683 315.313 49.985V19.24C315.313 17.9567 315.661 16.9667 316.358 16.27C317.055 15.5733 318.045 15.225 319.328 15.225H333.188C337.221 15.225 340.411 16.1233 342.758 17.92C345.141 19.7167 346.333 22.1733 346.333 25.29C346.333 27.3067 345.783 29.085 344.683 30.625C343.62 32.1283 342.135 33.2283 340.228 33.925ZM323.673 31.01H331.758C333.958 31.01 335.571 30.6433 336.598 29.91C337.661 29.14 338.193 27.985 338.193 26.445C338.193 24.8317 337.661 23.6583 336.598 22.925C335.571 22.155 333.958 21.77 331.758 21.77H323.673V31.01ZM332.748 47.455C335.021 47.455 336.671 47.07 337.698 46.3C338.725 45.53 339.238 44.2833 339.238 42.56C339.238 40.8367 338.725 39.5717 337.698 38.765C336.671 37.9583 335.021 37.555 332.748 37.555H323.673V47.455H332.748Z" fill="white"/>
<path d="M374.408 26.445C375.691 26.445 376.699 26.7933 377.433 27.49C378.203 28.1867 378.588 29.14 378.588 30.35V50.535C378.588 51.6717 378.184 52.5883 377.378 53.285C376.608 53.9817 375.599 54.33 374.353 54.33C373.179 54.33 372.244 54 371.548 53.34C370.851 52.68 370.503 51.8 370.503 50.7V50.15C369.659 51.5433 368.541 52.6067 367.148 53.34C365.791 54.0733 364.251 54.44 362.528 54.44C359.118 54.44 356.569 53.505 354.883 51.635C353.233 49.7283 352.408 46.8683 352.408 43.055V30.35C352.408 29.14 352.774 28.1867 353.508 27.49C354.278 26.7933 355.305 26.445 356.588 26.445C357.871 26.445 358.879 26.7933 359.613 27.49C360.346 28.1867 360.713 29.14 360.713 30.35V43.22C360.713 44.8333 361.043 46.025 361.703 46.795C362.399 47.565 363.444 47.95 364.838 47.95C366.451 47.95 367.753 47.4 368.743 46.3C369.77 45.2 370.283 43.7517 370.283 41.955V30.35C370.283 29.14 370.649 28.1867 371.383 27.49C372.116 26.7933 373.124 26.445 374.408 26.445Z" fill="white"/>
<path d="M408.006 14.95C409.289 14.95 410.316 15.2983 411.086 15.995C411.892 16.6917 412.296 17.6083 412.296 18.745V50.425C412.296 51.5983 411.91 52.5517 411.141 53.285C410.407 53.9817 409.417 54.33 408.171 54.33C406.924 54.33 405.915 53.9817 405.146 53.285C404.412 52.5517 404.046 51.5983 404.046 50.425V49.985C403.239 51.3783 402.084 52.4783 400.581 53.285C399.114 54.055 397.445 54.44 395.576 54.44C393.266 54.44 391.194 53.8533 389.361 52.68C387.564 51.47 386.152 49.8017 385.126 47.675C384.136 45.5117 383.641 43.0367 383.641 40.25C383.641 37.4633 384.136 35.025 385.126 32.935C386.152 30.8083 387.564 29.1767 389.361 28.04C391.157 26.9033 393.229 26.335 395.576 26.335C397.409 26.335 399.059 26.72 400.526 27.49C402.029 28.26 403.184 29.3417 403.991 30.735V18.58C403.991 17.48 404.357 16.6 405.091 15.94C405.824 15.28 406.796 14.95 408.006 14.95ZM397.996 48.115C399.939 48.115 401.424 47.455 402.451 46.135C403.514 44.7783 404.046 42.8533 404.046 40.36C404.046 37.8667 403.514 35.96 402.451 34.64C401.424 33.32 399.939 32.66 397.996 32.66C396.052 32.66 394.549 33.32 393.486 34.64C392.422 35.9233 391.891 37.7933 391.891 40.25C391.891 42.7433 392.422 44.6867 393.486 46.08C394.549 47.4367 396.052 48.115 397.996 48.115Z" fill="white"/>
<path d="M442.121 26.445C443.368 26.445 444.358 26.8117 445.091 27.545C445.861 28.2417 446.246 29.1767 446.246 30.35V51.085C446.246 55.4483 444.981 58.7483 442.451 60.985C439.921 63.2217 436.218 64.34 431.341 64.34C427.234 64.34 423.861 63.6067 421.221 62.14C420.561 61.7733 420.048 61.315 419.681 60.765C419.314 60.2517 419.131 59.665 419.131 59.005C419.131 58.0883 419.351 57.3367 419.791 56.75C420.231 56.1633 420.818 55.87 421.551 55.87C421.954 55.87 422.431 55.9433 422.981 56.09C423.531 56.2733 424.099 56.475 424.686 56.695C425.859 57.135 426.941 57.4833 427.931 57.74C428.921 57.9967 429.984 58.125 431.121 58.125C433.468 58.125 435.209 57.5933 436.346 56.53C437.483 55.4667 438.051 53.8533 438.051 51.69V48.72C437.281 50.1133 436.126 51.2133 434.586 52.02C433.046 52.8267 431.323 53.23 429.416 53.23C427.069 53.23 424.979 52.68 423.146 51.58C421.349 50.48 419.938 48.9217 418.911 46.905C417.884 44.8517 417.371 42.4867 417.371 39.81C417.371 37.1333 417.884 34.7867 418.911 32.77C419.938 30.7167 421.349 29.14 423.146 28.04C424.979 26.9033 427.069 26.335 429.416 26.335C431.286 26.335 432.973 26.7383 434.476 27.545C436.016 28.315 437.189 29.3967 437.996 30.79V30.24C437.996 29.0667 438.363 28.15 439.096 27.49C439.866 26.7933 440.874 26.445 442.121 26.445ZM431.836 46.905C433.779 46.905 435.283 46.2817 436.346 45.035C437.446 43.7883 437.996 42.0467 437.996 39.81C437.996 37.5733 437.446 35.8317 436.346 34.585C435.283 33.3017 433.779 32.66 431.836 32.66C429.893 32.66 428.371 33.3017 427.271 34.585C426.171 35.8317 425.621 37.5733 425.621 39.81C425.621 42.0467 426.171 43.7883 427.271 45.035C428.371 46.2817 429.893 46.905 431.836 46.905Z" fill="white"/>
<path d="M474.306 45.97C475.04 45.97 475.626 46.2633 476.066 46.85C476.543 47.4367 476.781 48.1883 476.781 49.105C476.781 49.7283 476.598 50.315 476.231 50.865C475.865 51.3783 475.351 51.8183 474.691 52.185C473.445 52.845 471.996 53.395 470.346 53.835C468.696 54.2383 467.175 54.44 465.781 54.44C462.848 54.44 460.281 53.8717 458.081 52.735C455.918 51.5983 454.25 49.985 453.076 47.895C451.903 45.7683 451.316 43.275 451.316 40.415C451.316 37.665 451.885 35.2267 453.021 33.1C454.158 30.9733 455.735 29.3233 457.751 28.15C459.768 26.94 462.06 26.335 464.626 26.335C467.083 26.335 469.228 26.885 471.061 27.985C472.931 29.0483 474.38 30.5883 475.406 32.605C476.433 34.585 476.946 36.9133 476.946 39.59C476.946 40.3967 476.745 41.02 476.341 41.46C475.975 41.8633 475.443 42.065 474.746 42.065H459.346C459.603 44.2283 460.263 45.805 461.326 46.795C462.39 47.7483 463.911 48.225 465.891 48.225C466.955 48.225 467.908 48.0967 468.751 47.84C469.595 47.5833 470.53 47.235 471.556 46.795C472.07 46.575 472.565 46.3917 473.041 46.245C473.518 46.0617 473.94 45.97 474.306 45.97ZM464.846 32.055C463.27 32.055 462.005 32.5683 461.051 33.595C460.098 34.585 459.53 36.0333 459.346 37.94H469.961C469.851 35.9967 469.356 34.53 468.476 33.54C467.633 32.55 466.423 32.055 464.846 32.055Z" fill="white"/>
<path d="M496.44 48.28C497.54 48.3533 498.347 48.6283 498.86 49.105C499.374 49.5817 499.63 50.2783 499.63 51.195C499.63 52.2583 499.209 53.065 498.365 53.615C497.522 54.165 496.312 54.385 494.735 54.275L493.195 54.165C486.779 53.6517 483.57 50.2967 483.57 44.1V33.21H481.37C480.16 33.21 479.244 32.9533 478.62 32.44C477.997 31.89 477.685 31.12 477.685 30.13C477.685 29.1033 477.997 28.3333 478.62 27.82C479.244 27.27 480.16 26.995 481.37 26.995H483.57V22.705C483.57 21.495 483.937 20.5417 484.67 19.845C485.44 19.1483 486.467 18.8 487.75 18.8C489.034 18.8 490.042 19.1483 490.775 19.845C491.509 20.5417 491.875 21.495 491.875 22.705V26.995H495.725C498.219 26.995 499.465 28.04 499.465 30.13C499.465 31.12 499.154 31.89 498.53 32.44C497.907 32.9533 496.972 33.21 495.725 33.21H491.875V44.705C491.875 45.805 492.132 46.6483 492.645 47.235C493.159 47.785 493.91 48.0967 494.9 48.17L496.44 48.28Z" fill="white"/>
<path d="M51.9142 2.01447C53.1154 2.01447 54.2152 2.27497 55.1559 2.82491C59.2371 5.16938 60.1633 12.4923 58.0793 21.6965C67.1099 24.4607 73 28.9181 73 33.6215C73 38.3104 67.1388 42.7678 58.1661 45.532C60.2646 54.7073 59.3528 62.0157 55.2862 64.3602C54.331 64.9101 53.2311 65.1706 52.0155 65.1706C48.0357 65.1706 42.8257 62.363 37.5579 57.4715C32.2901 62.392 27.0801 65.2285 23.1003 65.2285C21.8846 65.2285 20.7848 64.968 19.8441 64.4181C15.7629 62.0736 14.8367 54.7507 16.9207 45.5465C7.89013 42.7823 2 38.3249 2 33.6215C2 28.9325 7.86119 24.4896 16.8628 21.711C14.7644 12.5357 15.6761 5.22727 19.7428 2.8828C20.6979 2.33286 21.7978 2.07236 23.0135 2.07236M51.9287 2C47.9488 2 42.7389 4.83653 37.4711 9.75703C32.2032 4.86547 26.9933 2.05789 23.0135 2.05789" stroke="white" stroke-width="3"/>
<path d="M50 39.8677C50 42.382 49.1192 44.5083 47.3575 46.2466C45.6273 47.9538 43.2837 49.0557 40.3267 49.5524V52.2064C40.3267 53.0444 40.0593 53.7118 39.5245 54.2085C39.0212 54.7362 38.3448 55 37.4955 55C36.6776 55 36.0012 54.7362 35.4664 54.2085C34.9316 53.7118 34.6642 53.0444 34.6642 52.2064V49.6921C32.9341 49.5369 31.2511 49.1799 29.6152 48.6212C28.0109 48.0624 26.5953 47.3485 25.3684 46.4794C24.8651 46.169 24.5033 45.8275 24.2831 45.455C24.0944 45.0515 24 44.5549 24 43.9651C24 43.1891 24.2359 42.5062 24.7078 41.9164C25.2111 41.3266 25.7774 41.0317 26.4065 41.0317C27.0042 41.0317 27.7435 41.2801 28.6243 41.7767C30.0714 42.6148 31.4398 43.2356 32.7296 43.6392C34.0508 44.0116 35.4192 44.1979 36.8348 44.1979C38.7223 44.1979 40.1694 43.8564 41.176 43.1735C42.1827 42.4596 42.686 41.4663 42.686 40.1937C42.686 39.4176 42.3872 38.7813 41.7895 38.2847C41.2232 37.788 40.5154 37.4 39.6661 37.1206C38.8167 36.8413 37.5898 36.4843 35.9855 36.0497C33.6576 35.46 31.7387 34.8702 30.2287 34.2804C28.7187 33.6907 27.4132 32.7594 26.3122 31.4868C25.2426 30.2141 24.7078 28.5069 24.7078 26.3651C24.7078 23.8508 25.6044 21.6935 27.3975 19.8931C29.222 18.0928 31.5971 16.9443 34.5227 16.4476V13.7937C34.5227 12.9556 34.7901 12.2882 35.3249 11.7915C35.8596 11.2638 36.536 11 37.3539 11C38.2033 11 38.8796 11.2638 39.3829 11.7915C39.9177 12.2882 40.1851 12.9556 40.1851 13.7937V16.3545C43.0163 16.727 45.6745 17.7824 48.1597 19.5206C48.6316 19.831 48.9619 20.188 49.1506 20.5915C49.3708 20.9951 49.4809 21.4762 49.4809 22.0349C49.4809 22.8109 49.2293 23.4938 48.726 24.0836C48.2541 24.6734 47.7036 24.9683 47.0744 24.9683C46.7284 24.9683 46.3981 24.9217 46.0835 24.8286C45.8004 24.7355 45.3914 24.5337 44.8566 24.2233C43.5668 23.4162 42.4029 22.8109 41.3648 22.4074C40.3581 22.0039 39.1155 21.8021 37.637 21.8021C35.9383 21.8021 34.5699 22.1746 33.5318 22.9196C32.5251 23.6646 32.0218 24.6578 32.0218 25.8995C32.0218 26.7686 32.3206 27.4825 32.9183 28.0413C33.516 28.569 34.271 28.988 35.1833 29.2984C36.0956 29.6088 37.3696 29.9658 39.0054 30.3693C41.3019 30.928 43.1736 31.5023 44.6207 32.0921C46.0992 32.6508 47.3575 33.5665 48.3956 34.8392C49.4652 36.0808 50 37.757 50 39.8677Z" fill="white"/>
</svg>
