<svg width="500" height="67" viewBox="0 0 500 67" fill="none" xmlns="http://www.w3.org/2000/svg">
<path d="M127.64 48.555C128.19 49.3617 128.465 50.15 128.465 50.92C128.465 51.9467 128.043 52.79 127.2 53.45C126.393 54.11 125.44 54.44 124.34 54.44C123.643 54.44 122.965 54.275 122.305 53.945C121.645 53.615 121.095 53.1017 120.655 52.405L113.395 41.625C112.771 40.6717 112.111 39.9933 111.415 39.59C110.718 39.15 109.838 38.93 108.775 38.93H104.32V50.04C104.32 51.36 103.935 52.405 103.165 53.175C102.431 53.945 101.423 54.33 100.14 54.33C98.8196 54.33 97.7746 53.945 97.0046 53.175C96.2346 52.405 95.8496 51.36 95.8496 50.04V19.24C95.8496 17.9567 96.1979 16.9667 96.8946 16.27C97.5913 15.5733 98.5813 15.225 99.8646 15.225H113.67C118.216 15.225 121.645 16.2333 123.955 18.25C126.301 20.23 127.475 23.1083 127.475 26.885C127.475 29.855 126.65 32.33 125 34.31C123.35 36.29 121.021 37.5917 118.015 38.215C119.115 38.435 120.086 38.875 120.93 39.535C121.81 40.1583 122.653 41.075 123.46 42.285L127.64 48.555ZM112.405 32.44C114.861 32.44 116.64 32.0183 117.74 31.175C118.84 30.295 119.39 28.9383 119.39 27.105C119.39 25.235 118.84 23.8783 117.74 23.035C116.64 22.1917 114.861 21.77 112.405 21.77H104.21V32.44H112.405Z" fill="white"/>
<path d="M155.424 45.97C156.157 45.97 156.744 46.2633 157.184 46.85C157.661 47.4367 157.899 48.1883 157.899 49.105C157.899 49.7283 157.716 50.315 157.349 50.865C156.982 51.3783 156.469 51.8183 155.809 52.185C154.562 52.845 153.114 53.395 151.464 53.835C149.814 54.2383 148.292 54.44 146.899 54.44C143.966 54.44 141.399 53.8717 139.199 52.735C137.036 51.5983 135.367 49.985 134.194 47.895C133.021 45.7683 132.434 43.275 132.434 40.415C132.434 37.665 133.002 35.2267 134.139 33.1C135.276 30.9733 136.852 29.3233 138.869 28.15C140.886 26.94 143.177 26.335 145.744 26.335C148.201 26.335 150.346 26.885 152.179 27.985C154.049 29.0483 155.497 30.5883 156.524 32.605C157.551 34.585 158.064 36.9133 158.064 39.59C158.064 40.3967 157.862 41.02 157.459 41.46C157.092 41.8633 156.561 42.065 155.864 42.065H140.464C140.721 44.2283 141.381 45.805 142.444 46.795C143.507 47.7483 145.029 48.225 147.009 48.225C148.072 48.225 149.026 48.0967 149.869 47.84C150.712 47.5833 151.647 47.235 152.674 46.795C153.187 46.575 153.682 46.3917 154.159 46.245C154.636 46.0617 155.057 45.97 155.424 45.97ZM145.964 32.055C144.387 32.055 143.122 32.5683 142.169 33.595C141.216 34.585 140.647 36.0333 140.464 37.94H151.079C150.969 35.9967 150.474 34.53 149.594 33.54C148.751 32.55 147.541 32.055 145.964 32.055Z" fill="white"/>
<path d="M175.235 26.335C179.195 26.335 182.129 27.3067 184.035 29.25C185.942 31.1567 186.895 34.09 186.895 38.05V50.48C186.895 51.69 186.547 52.6433 185.85 53.34C185.154 54 184.182 54.33 182.935 54.33C181.762 54.33 180.809 53.9817 180.075 53.285C179.379 52.5517 179.03 51.6167 179.03 50.48V50.095C178.48 51.4517 177.564 52.515 176.28 53.285C174.997 54.055 173.494 54.44 171.77 54.44C169.937 54.44 168.269 54.0733 166.765 53.34C165.299 52.6067 164.125 51.58 163.245 50.26C162.402 48.94 161.98 47.4733 161.98 45.86C161.98 43.88 162.475 42.3217 163.465 41.185C164.492 40.0483 166.124 39.2233 168.36 38.71C170.597 38.1967 173.659 37.94 177.545 37.94H178.975V36.95C178.975 35.41 178.627 34.2917 177.93 33.595C177.27 32.8983 176.152 32.55 174.575 32.55C172.999 32.55 170.725 33.1 167.755 34.2C166.912 34.6033 166.197 34.805 165.61 34.805C164.804 34.805 164.162 34.53 163.685 33.98C163.209 33.3933 162.97 32.6417 162.97 31.725C162.97 30.9917 163.135 30.3867 163.465 29.91C163.795 29.4333 164.327 28.9933 165.06 28.59C166.344 27.8933 167.902 27.3433 169.735 26.94C171.605 26.5367 173.439 26.335 175.235 26.335ZM173.585 48.72C175.199 48.72 176.5 48.1883 177.49 47.125C178.48 46.025 178.975 44.6133 178.975 42.89V41.955H178.04C175.07 41.955 172.98 42.1933 171.77 42.67C170.597 43.1467 170.01 44.0083 170.01 45.255C170.01 46.2817 170.34 47.125 171 47.785C171.697 48.4083 172.559 48.72 173.585 48.72Z" fill="white"/>
<path d="M205.59 54.44C202.803 54.44 200.365 53.8717 198.275 52.735C196.185 51.5983 194.571 49.985 193.435 47.895C192.335 45.805 191.785 43.3483 191.785 40.525C191.785 37.7017 192.371 35.2267 193.545 33.1C194.755 30.9367 196.441 29.2683 198.605 28.095C200.768 26.9217 203.261 26.335 206.085 26.335C207.551 26.335 209.018 26.5367 210.485 26.94C211.988 27.3433 213.326 27.9117 214.5 28.645C215.636 29.3417 216.205 30.3683 216.205 31.725C216.205 32.6783 215.985 33.4667 215.545 34.09C215.105 34.6767 214.518 34.97 213.785 34.97C213.308 34.97 212.85 34.8967 212.41 34.75C212.006 34.5667 211.456 34.31 210.76 33.98C209.99 33.5767 209.293 33.265 208.67 33.045C208.083 32.825 207.405 32.715 206.635 32.715C204.581 32.715 203.005 33.375 201.905 34.695C200.841 35.9783 200.31 37.8667 200.31 40.36C200.31 42.8533 200.841 44.76 201.905 46.08C203.005 47.4 204.581 48.06 206.635 48.06C207.405 48.06 208.083 47.9683 208.67 47.785C209.256 47.565 209.971 47.235 210.815 46.795C211.511 46.465 212.061 46.2267 212.465 46.08C212.868 45.8967 213.308 45.805 213.785 45.805C214.481 45.805 215.05 46.1167 215.49 46.74C215.966 47.3633 216.205 48.1517 216.205 49.105C216.205 50.4617 215.636 51.47 214.5 52.13C213.326 52.8633 211.97 53.4317 210.43 53.835C208.89 54.2383 207.276 54.44 205.59 54.44Z" fill="white"/>
<path d="M235.566 48.28C236.666 48.3533 237.473 48.6283 237.986 49.105C238.499 49.5817 238.756 50.2783 238.756 51.195C238.756 52.2583 238.334 53.065 237.491 53.615C236.648 54.165 235.438 54.385 233.861 54.275L232.321 54.165C225.904 53.6517 222.696 50.2967 222.696 44.1V33.21H220.496C219.286 33.21 218.369 32.9533 217.746 32.44C217.123 31.89 216.811 31.12 216.811 30.13C216.811 29.1033 217.123 28.3333 217.746 27.82C218.369 27.27 219.286 26.995 220.496 26.995H222.696V22.705C222.696 21.495 223.063 20.5417 223.796 19.845C224.566 19.1483 225.593 18.8 226.876 18.8C228.159 18.8 229.168 19.1483 229.901 19.845C230.634 20.5417 231.001 21.495 231.001 22.705V26.995H234.851C237.344 26.995 238.591 28.04 238.591 30.13C238.591 31.12 238.279 31.89 237.656 32.44C237.033 32.9533 236.098 33.21 234.851 33.21H231.001V44.705C231.001 45.805 231.258 46.6483 231.771 47.235C232.284 47.785 233.036 48.0967 234.026 48.17L235.566 48.28Z" fill="white"/>
<path d="M246 54.33C244.79 54.33 243.782 54 242.975 53.34C242.205 52.68 241.82 51.7083 241.82 50.425V30.35C241.82 29.0667 242.224 28.095 243.03 27.435C243.837 26.775 244.827 26.445 246 26.445C247.174 26.445 248.145 26.775 248.915 27.435C249.722 28.095 250.125 29.0667 250.125 30.35V50.425C250.125 51.7083 249.722 52.68 248.915 53.34C248.145 54 247.174 54.33 246 54.33ZM246 22.045C244.534 22.045 243.379 21.6783 242.535 20.945C241.692 20.175 241.27 19.1483 241.27 17.865C241.27 16.5817 241.692 15.5733 242.535 14.84C243.379 14.1067 244.534 13.74 246 13.74C247.43 13.74 248.567 14.125 249.41 14.895C250.29 15.6283 250.73 16.6183 250.73 17.865C250.73 19.1483 250.309 20.175 249.465 20.945C248.622 21.6783 247.467 22.045 246 22.045Z" fill="white"/>
<path d="M274.909 28.81C275.275 28.04 275.752 27.4717 276.339 27.105C276.962 26.7017 277.622 26.5 278.319 26.5C279.345 26.5 280.262 26.8483 281.069 27.545C281.875 28.205 282.279 29.0117 282.279 29.965C282.279 30.515 282.15 31.0467 281.894 31.56L271.994 51.855C271.627 52.6617 271.077 53.285 270.344 53.725C269.61 54.1283 268.822 54.33 267.979 54.33C267.135 54.33 266.347 54.1283 265.614 53.725C264.88 53.285 264.312 52.6617 263.909 51.855L254.009 31.56C253.789 31.0467 253.679 30.5517 253.679 30.075C253.679 29.085 254.1 28.2417 254.944 27.545C255.824 26.8483 256.795 26.5 257.859 26.5C258.629 26.5 259.325 26.7017 259.949 27.105C260.572 27.4717 261.067 28.04 261.434 28.81L268.199 43.605L274.909 28.81Z" fill="white"/>
<path d="M306.996 45.97C307.73 45.97 308.316 46.2633 308.756 46.85C309.233 47.4367 309.471 48.1883 309.471 49.105C309.471 49.7283 309.288 50.315 308.921 50.865C308.555 51.3783 308.041 51.8183 307.381 52.185C306.135 52.845 304.686 53.395 303.036 53.835C301.386 54.2383 299.865 54.44 298.471 54.44C295.538 54.44 292.971 53.8717 290.771 52.735C288.608 51.5983 286.94 49.985 285.766 47.895C284.593 45.7683 284.006 43.275 284.006 40.415C284.006 37.665 284.575 35.2267 285.711 33.1C286.848 30.9733 288.425 29.3233 290.441 28.15C292.458 26.94 294.75 26.335 297.316 26.335C299.773 26.335 301.918 26.885 303.751 27.985C305.621 29.0483 307.07 30.5883 308.096 32.605C309.123 34.585 309.636 36.9133 309.636 39.59C309.636 40.3967 309.435 41.02 309.031 41.46C308.665 41.8633 308.133 42.065 307.436 42.065H292.036C292.293 44.2283 292.953 45.805 294.016 46.795C295.08 47.7483 296.601 48.225 298.581 48.225C299.645 48.225 300.598 48.0967 301.441 47.84C302.285 47.5833 303.22 47.235 304.246 46.795C304.76 46.575 305.255 46.3917 305.731 46.245C306.208 46.0617 306.63 45.97 306.996 45.97ZM297.536 32.055C295.96 32.055 294.695 32.5683 293.741 33.595C292.788 34.585 292.22 36.0333 292.036 37.94H302.651C302.541 35.9967 302.046 34.53 301.166 33.54C300.323 32.55 299.113 32.055 297.536 32.055Z" fill="white"/>
<path d="M340.227 33.925C342.464 34.585 344.188 35.74 345.398 37.39C346.644 39.0033 347.268 41.0017 347.268 43.385C347.268 46.6483 346.057 49.2333 343.637 51.14C341.254 53.0467 337.954 54 333.738 54H319.327C318.044 54 317.054 53.6517 316.357 52.955C315.661 52.2583 315.312 51.2683 315.312 49.985V19.24C315.312 17.9567 315.661 16.9667 316.357 16.27C317.054 15.5733 318.044 15.225 319.327 15.225H333.188C337.221 15.225 340.411 16.1233 342.758 17.92C345.141 19.7167 346.333 22.1733 346.333 25.29C346.333 27.3067 345.783 29.085 344.682 30.625C343.619 32.1283 342.134 33.2283 340.227 33.925ZM323.673 31.01H331.758C333.958 31.01 335.571 30.6433 336.598 29.91C337.661 29.14 338.193 27.985 338.193 26.445C338.193 24.8317 337.661 23.6583 336.598 22.925C335.571 22.155 333.958 21.77 331.758 21.77H323.673V31.01ZM332.747 47.455C335.021 47.455 336.671 47.07 337.697 46.3C338.724 45.53 339.238 44.2833 339.238 42.56C339.238 40.8367 338.724 39.5717 337.697 38.765C336.671 37.9583 335.021 37.555 332.747 37.555H323.673V47.455H332.747Z" fill="white"/>
<path d="M374.407 26.445C375.691 26.445 376.699 26.7933 377.432 27.49C378.202 28.1867 378.587 29.14 378.587 30.35V50.535C378.587 51.6717 378.184 52.5883 377.377 53.285C376.607 53.9817 375.599 54.33 374.352 54.33C373.179 54.33 372.244 54 371.547 53.34C370.851 52.68 370.502 51.8 370.502 50.7V50.15C369.659 51.5433 368.541 52.6067 367.147 53.34C365.791 54.0733 364.251 54.44 362.527 54.44C359.117 54.44 356.569 53.505 354.882 51.635C353.232 49.7283 352.407 46.8683 352.407 43.055V30.35C352.407 29.14 352.774 28.1867 353.507 27.49C354.277 26.7933 355.304 26.445 356.587 26.445C357.871 26.445 358.879 26.7933 359.612 27.49C360.346 28.1867 360.712 29.14 360.712 30.35V43.22C360.712 44.8333 361.042 46.025 361.702 46.795C362.399 47.565 363.444 47.95 364.837 47.95C366.451 47.95 367.752 47.4 368.742 46.3C369.769 45.2 370.282 43.7517 370.282 41.955V30.35C370.282 29.14 370.649 28.1867 371.382 27.49C372.116 26.7933 373.124 26.445 374.407 26.445Z" fill="white"/>
<path d="M408.005 14.95C409.288 14.95 410.315 15.2983 411.085 15.995C411.892 16.6917 412.295 17.6083 412.295 18.745V50.425C412.295 51.5983 411.91 52.5517 411.14 53.285C410.407 53.9817 409.417 54.33 408.17 54.33C406.923 54.33 405.915 53.9817 405.145 53.285C404.412 52.5517 404.045 51.5983 404.045 50.425V49.985C403.238 51.3783 402.083 52.4783 400.58 53.285C399.113 54.055 397.445 54.44 395.575 54.44C393.265 54.44 391.193 53.8533 389.36 52.68C387.563 51.47 386.152 49.8017 385.125 47.675C384.135 45.5117 383.64 43.0367 383.64 40.25C383.64 37.4633 384.135 35.025 385.125 32.935C386.152 30.8083 387.563 29.1767 389.36 28.04C391.157 26.9033 393.228 26.335 395.575 26.335C397.408 26.335 399.058 26.72 400.525 27.49C402.028 28.26 403.183 29.3417 403.99 30.735V18.58C403.99 17.48 404.357 16.6 405.09 15.94C405.823 15.28 406.795 14.95 408.005 14.95ZM397.995 48.115C399.938 48.115 401.423 47.455 402.45 46.135C403.513 44.7783 404.045 42.8533 404.045 40.36C404.045 37.8667 403.513 35.96 402.45 34.64C401.423 33.32 399.938 32.66 397.995 32.66C396.052 32.66 394.548 33.32 393.485 34.64C392.422 35.9233 391.89 37.7933 391.89 40.25C391.89 42.7433 392.422 44.6867 393.485 46.08C394.548 47.4367 396.052 48.115 397.995 48.115Z" fill="white"/>
<path d="M442.121 26.445C443.367 26.445 444.357 26.8117 445.091 27.545C445.861 28.2417 446.246 29.1767 446.246 30.35V51.085C446.246 55.4483 444.981 58.7483 442.451 60.985C439.921 63.2217 436.217 64.34 431.341 64.34C427.234 64.34 423.861 63.6067 421.221 62.14C420.561 61.7733 420.047 61.315 419.681 60.765C419.314 60.2517 419.131 59.665 419.131 59.005C419.131 58.0883 419.351 57.3367 419.791 56.75C420.231 56.1633 420.817 55.87 421.551 55.87C421.954 55.87 422.431 55.9433 422.981 56.09C423.531 56.2733 424.099 56.475 424.686 56.695C425.859 57.135 426.941 57.4833 427.931 57.74C428.921 57.9967 429.984 58.125 431.121 58.125C433.467 58.125 435.209 57.5933 436.346 56.53C437.482 55.4667 438.051 53.8533 438.051 51.69V48.72C437.281 50.1133 436.126 51.2133 434.586 52.02C433.046 52.8267 431.322 53.23 429.416 53.23C427.069 53.23 424.979 52.68 423.146 51.58C421.349 50.48 419.937 48.9217 418.911 46.905C417.884 44.8517 417.371 42.4867 417.371 39.81C417.371 37.1333 417.884 34.7867 418.911 32.77C419.937 30.7167 421.349 29.14 423.146 28.04C424.979 26.9033 427.069 26.335 429.416 26.335C431.286 26.335 432.972 26.7383 434.476 27.545C436.016 28.315 437.189 29.3967 437.996 30.79V30.24C437.996 29.0667 438.362 28.15 439.096 27.49C439.866 26.7933 440.874 26.445 442.121 26.445ZM431.836 46.905C433.779 46.905 435.282 46.2817 436.346 45.035C437.446 43.7883 437.996 42.0467 437.996 39.81C437.996 37.5733 437.446 35.8317 436.346 34.585C435.282 33.3017 433.779 32.66 431.836 32.66C429.892 32.66 428.371 33.3017 427.271 34.585C426.171 35.8317 425.621 37.5733 425.621 39.81C425.621 42.0467 426.171 43.7883 427.271 45.035C428.371 46.2817 429.892 46.905 431.836 46.905Z" fill="white"/>
<path d="M474.306 45.97C475.039 45.97 475.626 46.2633 476.066 46.85C476.543 47.4367 476.781 48.1883 476.781 49.105C476.781 49.7283 476.598 50.315 476.231 50.865C475.864 51.3783 475.351 51.8183 474.691 52.185C473.444 52.845 471.996 53.395 470.346 53.835C468.696 54.2383 467.174 54.44 465.781 54.44C462.848 54.44 460.281 53.8717 458.081 52.735C455.918 51.5983 454.249 49.985 453.076 47.895C451.903 45.7683 451.316 43.275 451.316 40.415C451.316 37.665 451.884 35.2267 453.021 33.1C454.158 30.9733 455.734 29.3233 457.751 28.15C459.768 26.94 462.059 26.335 464.626 26.335C467.083 26.335 469.228 26.885 471.061 27.985C472.931 29.0483 474.379 30.5883 475.406 32.605C476.433 34.585 476.946 36.9133 476.946 39.59C476.946 40.3967 476.744 41.02 476.341 41.46C475.974 41.8633 475.443 42.065 474.746 42.065H459.346C459.603 44.2283 460.263 45.805 461.326 46.795C462.389 47.7483 463.911 48.225 465.891 48.225C466.954 48.225 467.908 48.0967 468.751 47.84C469.594 47.5833 470.529 47.235 471.556 46.795C472.069 46.575 472.564 46.3917 473.041 46.245C473.518 46.0617 473.939 45.97 474.306 45.97ZM464.846 32.055C463.269 32.055 462.004 32.5683 461.051 33.595C460.098 34.585 459.529 36.0333 459.346 37.94H469.961C469.851 35.9967 469.356 34.53 468.476 33.54C467.633 32.55 466.423 32.055 464.846 32.055Z" fill="white"/>
<path d="M496.44 48.28C497.54 48.3533 498.347 48.6283 498.86 49.105C499.373 49.5817 499.63 50.2783 499.63 51.195C499.63 52.2583 499.208 53.065 498.365 53.615C497.522 54.165 496.312 54.385 494.735 54.275L493.195 54.165C486.778 53.6517 483.57 50.2967 483.57 44.1V33.21H481.37C480.16 33.21 479.243 32.9533 478.62 32.44C477.997 31.89 477.685 31.12 477.685 30.13C477.685 29.1033 477.997 28.3333 478.62 27.82C479.243 27.27 480.16 26.995 481.37 26.995H483.57V22.705C483.57 21.495 483.937 20.5417 484.67 19.845C485.44 19.1483 486.467 18.8 487.75 18.8C489.033 18.8 490.042 19.1483 490.775 19.845C491.508 20.5417 491.875 21.495 491.875 22.705V26.995H495.725C498.218 26.995 499.465 28.04 499.465 30.13C499.465 31.12 499.153 31.89 498.53 32.44C497.907 32.9533 496.972 33.21 495.725 33.21H491.875V44.705C491.875 45.805 492.132 46.6483 492.645 47.235C493.158 47.785 493.91 48.0967 494.9 48.17L496.44 48.28Z" fill="white"/>
<path fill-rule="evenodd" clip-rule="evenodd" d="M74.7597 34.2047C74.8403 28.8543 69.1475 24.0146 60.2698 20.8815C62.1397 11.6548 60.9099 4.28476 56.2773 1.60663C51.6437 -1.07204 44.6413 1.54159 37.5771 7.76905C30.4284 1.63891 23.3908 -0.878583 18.7943 1.86329C14.3235 4.53024 13.1338 11.5935 14.9106 20.4464C6.35305 23.3274 0.827275 27.8849 0.748891 33.0902C0.668321 38.4406 6.36115 43.2803 15.2388 46.4133C13.3689 55.64 14.5988 63.0101 19.2314 65.6882C23.8649 68.3669 30.8674 65.7533 37.9315 59.5258C45.0803 65.656 52.1179 68.1734 56.7143 65.4316C61.1851 62.7646 62.3748 55.7013 60.5981 46.8484C69.1556 43.9675 74.6814 39.41 74.7597 34.2047ZM47.3573 46.2466C49.119 44.5083 49.9998 42.382 49.9998 39.8677C49.9998 37.757 49.465 36.0808 48.3955 34.8392C47.3573 33.5665 46.099 32.6508 44.6205 32.0921C43.1734 31.5023 41.3017 30.928 39.0053 30.3693C37.3694 29.9658 36.0954 29.6088 35.1831 29.2984C34.2708 28.988 33.5158 28.569 32.9181 28.0413C32.3204 27.4825 32.0216 26.7686 32.0216 25.8995C32.0216 24.6579 32.5249 23.6646 33.5316 22.9196C34.5697 22.1746 35.9381 21.8021 37.6368 21.8021C39.1154 21.8021 40.358 22.0039 41.3646 22.4074C42.4027 22.8109 43.5667 23.4162 44.8564 24.2233C45.3912 24.5337 45.8002 24.7355 46.0833 24.8286C46.3979 24.9217 46.7282 24.9683 47.0742 24.9683C47.7034 24.9683 48.2539 24.6734 48.7258 24.0836C49.2291 23.4938 49.4808 22.8109 49.4808 22.0349C49.4808 21.4762 49.3707 20.9951 49.1505 20.5915C48.9617 20.188 48.6314 19.831 48.1595 19.5206C45.6743 17.7824 43.0162 16.727 40.1849 16.3545V13.7937C40.1849 12.9556 39.9175 12.2882 39.3828 11.7915C38.8794 11.2638 38.2031 11 37.3537 11C36.5358 11 35.8595 11.2638 35.3247 11.7915C34.7899 12.2882 34.5225 12.9556 34.5225 13.7937V16.4476C31.5969 16.9443 29.2218 18.0928 27.3973 19.8931C25.6042 21.6935 24.7076 23.8508 24.7076 26.3651C24.7076 28.5069 25.2424 30.2141 26.312 31.4868C27.413 32.7594 28.7185 33.6907 30.2285 34.2804C31.7385 34.8702 33.6574 35.46 35.9853 36.0497C37.5897 36.4843 38.8165 36.8413 39.6659 37.1206C40.5152 37.4 41.223 37.788 41.7893 38.2847C42.387 38.7813 42.6858 39.4176 42.6858 40.1936C42.6858 41.4663 42.1825 42.4596 41.1759 43.1735C40.1692 43.8564 38.7221 44.1979 36.8347 44.1979C35.4191 44.1979 34.0506 44.0116 32.7294 43.6392C31.4396 43.2356 30.0712 42.6148 28.6241 41.7767C27.7433 41.2801 27.0041 41.0317 26.4064 41.0317C25.7772 41.0317 25.2109 41.3266 24.7076 41.9164C24.2358 42.5062 23.9998 43.1891 23.9998 43.9651C23.9998 44.5549 24.0942 45.0515 24.2829 45.455C24.5031 45.8275 24.8649 46.169 25.3682 46.4794C26.5951 47.3485 28.0107 48.0624 29.6151 48.6212C31.2509 49.1799 32.9339 49.5369 34.6641 49.6921V52.2064C34.6641 53.0444 34.9315 53.7118 35.4662 54.2085C36.001 54.7362 36.6774 55 37.4953 55C38.3446 55 39.021 54.7362 39.5243 54.2085C40.0591 53.7118 40.3265 53.0444 40.3265 52.2064V49.5524C43.2835 49.0557 45.6272 47.9538 47.3573 46.2466Z" fill="white"/>
</svg>
