<svg width="70" height="63" viewBox="0 0 70 63" fill="none" xmlns="http://www.w3.org/2000/svg">
<path fill-rule="evenodd" clip-rule="evenodd" d="M69.9992 31.7217C70.0754 26.6769 64.6912 22.1138 56.2949 19.1597C58.0634 10.4602 56.9002 3.5112 52.5187 0.986084C48.1364 -1.53953 41.5136 0.924722 34.8325 6.79631C28.0713 1.01632 21.4152 -1.35738 17.0679 1.22785C12.8394 3.74245 11.7143 10.4023 13.3947 18.7495C5.30115 21.4658 0.0749333 25.763 0.000798402 30.6708C-0.0754034 35.7156 5.30879 40.2787 13.7051 43.2328C11.9366 51.9323 13.0998 58.8814 17.4813 61.4065C21.8636 63.9321 28.4865 61.4678 35.1677 55.596C41.9288 61.3759 48.5849 63.7495 52.9321 61.1643C57.1605 58.6497 58.2857 51.99 56.6053 43.643C64.6989 40.9267 69.9251 36.6295 69.9992 31.7217ZM44.0824 43.0755C45.7486 41.4366 46.5816 39.4318 46.5816 37.0611C46.5816 35.071 46.0758 33.4905 45.0642 32.3199C44.0824 31.1199 42.8923 30.2565 41.4939 29.7297C40.1253 29.1736 38.3551 28.6322 36.1831 28.1054C34.636 27.7249 33.431 27.3883 32.5682 27.0957C31.7054 26.803 30.9913 26.4079 30.426 25.9104C29.8607 25.3835 29.5781 24.7104 29.5781 23.8909C29.5781 22.7202 30.0541 21.7837 31.0062 21.0813C31.988 20.3789 33.2823 20.0277 34.8889 20.0277C36.2873 20.0277 37.4625 20.2179 38.4146 20.5984C39.3964 20.9788 40.4972 21.5496 41.7171 22.3105C42.2229 22.6032 42.6097 22.7934 42.8774 22.8812C43.175 22.969 43.4874 23.0129 43.8146 23.0129C44.4097 23.0129 44.9304 22.7349 45.3767 22.1788C45.8527 21.6227 46.0907 20.9788 46.0907 20.2472C46.0907 19.7204 45.9866 19.2667 45.7783 18.8863C45.5998 18.5058 45.2874 18.1692 44.8411 17.8765C42.4907 16.2376 39.9766 15.2425 37.2989 14.8913V12.4768C37.2989 11.6865 37.046 11.0573 36.5402 10.589C36.0641 10.0915 35.4244 9.84271 34.6211 9.84271C33.8476 9.84271 33.2079 10.0915 32.7021 10.589C32.1963 11.0573 31.9434 11.6865 31.9434 12.4768V14.9791C29.1764 15.4474 26.9301 16.5302 25.2045 18.2277C23.5086 19.9252 22.6606 21.9593 22.6606 24.3299C22.6606 26.3494 23.1664 27.9591 24.178 29.159C25.2193 30.359 26.4541 31.237 27.8822 31.793C29.3103 32.3491 31.1252 32.9052 33.3269 33.4613C34.8443 33.871 36.0046 34.2076 36.8079 34.471C37.6113 34.7344 38.2807 35.1002 38.8162 35.5685C39.3815 36.0368 39.6642 36.6368 39.6642 37.3684C39.6642 38.5684 39.1881 39.5049 38.2361 40.1781C37.284 40.822 35.9154 41.1439 34.1302 41.1439C32.7913 41.1439 31.4971 40.9683 30.2475 40.6171C29.0277 40.2366 27.7334 39.6513 26.3648 38.8611C25.5317 38.3928 24.8326 38.1586 24.2673 38.1586C23.6722 38.1586 23.1367 38.4367 22.6606 38.9928C22.2143 39.5488 21.9912 40.1927 21.9912 40.9244C21.9912 41.4805 22.0805 41.9487 22.259 42.3292C22.4672 42.6804 22.8094 43.0024 23.2854 43.295C24.4458 44.1145 25.7846 44.7876 27.302 45.3145C28.8491 45.8413 30.4409 46.1778 32.0773 46.3242V48.6948C32.0773 49.485 32.3302 50.1143 32.836 50.5825C33.3418 51.0801 33.9814 51.3288 34.755 51.3288C35.5583 51.3288 36.198 51.0801 36.674 50.5825C37.1798 50.1143 37.4327 49.485 37.4327 48.6948V46.1925C40.2295 45.7242 42.446 44.6852 44.0824 43.0755Z" fill="white"/>
</svg>
