<svg width="320" height="41" viewBox="0 0 320 41" fill="none" xmlns="http://www.w3.org/2000/svg">
<path d="M25.1939 28.4911C25.6298 29.1304 25.8477 29.7552 25.8477 30.3654C25.8477 31.1791 25.5135 31.8474 24.8452 32.3705C24.2059 32.8935 23.4504 33.1551 22.5786 33.1551C22.0265 33.1551 21.4889 33.0243 20.9659 32.7628C20.4428 32.5012 20.0069 32.0944 19.6582 31.5423L13.9046 22.999C13.4106 22.2435 12.8875 21.7059 12.3354 21.3863C11.7833 21.0376 11.0859 20.8632 10.2432 20.8632H6.71256V29.668C6.71256 30.7141 6.40744 31.5423 5.79721 32.1525C5.21604 32.7628 4.41692 33.0679 3.39987 33.0679C2.35375 33.0679 1.52558 32.7628 0.915349 32.1525C0.305116 31.5423 0 30.7141 0 29.668V5.25871C0 4.24165 0.276058 3.45707 0.828173 2.90495C1.38029 2.35284 2.16487 2.07678 3.18193 2.07678H14.1225C17.7258 2.07678 20.4428 2.87589 22.2735 4.47412C24.1333 6.04329 25.0631 8.3244 25.0631 11.3174C25.0631 13.6712 24.4093 15.6327 23.1017 17.2018C21.794 18.771 19.9488 19.8026 17.566 20.2966C18.4377 20.4709 19.2078 20.8196 19.8762 21.3427C20.5736 21.8367 21.2419 22.5632 21.8812 23.5221L25.1939 28.4911ZM13.12 15.7198C15.0669 15.7198 16.4763 15.3857 17.348 14.7173C18.2198 14.0199 18.6557 12.9447 18.6557 11.4918C18.6557 10.0098 18.2198 8.93464 17.348 8.26628C16.4763 7.59793 15.0669 7.26376 13.12 7.26376H6.62538V15.7198H13.12Z" fill="white"/>
<path d="M47.2134 26.4425C47.7945 26.4425 48.2595 26.675 48.6082 27.1399C48.9859 27.6048 49.1748 28.2006 49.1748 28.927C49.1748 29.421 49.0295 29.886 48.7389 30.3218C48.4483 30.7287 48.0415 31.0774 47.5185 31.368C46.5305 31.891 45.3827 32.3269 44.075 32.6756C42.7674 32.9952 41.5614 33.1551 40.4572 33.1551C38.1325 33.1551 36.0984 32.7047 34.3549 31.8038C32.6404 30.903 31.3182 29.6244 30.3884 27.9681C29.4585 26.2827 28.9935 24.3067 28.9935 22.0401C28.9935 19.8607 29.444 17.9283 30.3448 16.2429C31.2456 14.5575 32.4951 13.2499 34.0933 12.32C35.6916 11.361 37.5077 10.8816 39.5419 10.8816C41.4888 10.8816 43.1887 11.3174 44.6417 12.1892C46.1236 13.0319 47.2715 14.2524 48.0851 15.8506C48.8988 17.4198 49.3056 19.265 49.3056 21.3863C49.3056 22.0256 49.1458 22.5196 48.8261 22.8683C48.5355 23.1879 48.1142 23.3478 47.5621 23.3478H35.3574C35.5608 25.0622 36.0839 26.3117 36.9266 27.0963C37.7693 27.8519 38.9752 28.2296 40.5444 28.2296C41.3871 28.2296 42.1426 28.1279 42.811 27.9245C43.4793 27.7211 44.2203 27.445 45.034 27.0963C45.4408 26.922 45.8331 26.7767 46.2108 26.6604C46.5886 26.5151 46.9228 26.4425 47.2134 26.4425ZM39.7162 15.4147C38.4667 15.4147 37.4642 15.8215 36.7086 16.6352C35.9531 17.4198 35.5027 18.5676 35.3574 20.0786H43.7699C43.6827 18.5385 43.2904 17.3762 42.593 16.5916C41.9247 15.807 40.9657 15.4147 39.7162 15.4147Z" fill="white"/>
<path d="M62.9139 10.8816C66.0522 10.8816 68.3769 11.6516 69.888 13.1917C71.399 14.7028 72.1546 17.0275 72.1546 20.1658V30.0167C72.1546 30.9757 71.8785 31.7312 71.3264 32.2833C70.7743 32.8064 70.0042 33.0679 69.0162 33.0679C68.0863 33.0679 67.3308 32.7918 66.7496 32.2397C66.1975 31.6585 65.9215 30.9175 65.9215 30.0167V29.7116C65.4856 30.7868 64.7591 31.6295 63.7421 32.2397C62.725 32.8499 61.5336 33.1551 60.1679 33.1551C58.7149 33.1551 57.3928 32.8645 56.2013 32.2833C55.039 31.7021 54.1091 30.8885 53.4117 29.8424C52.7434 28.7963 52.4092 27.6339 52.4092 26.3553C52.4092 24.7862 52.8015 23.5512 53.5861 22.6503C54.3997 21.7495 55.6928 21.0957 57.4654 20.6889C59.238 20.2821 61.6644 20.0786 64.7446 20.0786H65.8779V19.2941C65.8779 18.0736 65.6018 17.1873 65.0497 16.6352C64.5267 16.0831 63.6404 15.807 62.3908 15.807C61.1413 15.807 59.3397 16.2429 56.9859 17.1147C56.3176 17.4343 55.7509 17.5941 55.286 17.5941C54.6467 17.5941 54.1382 17.3762 53.7604 16.9403C53.3826 16.4754 53.1938 15.8797 53.1938 15.1532C53.1938 14.572 53.3245 14.0926 53.5861 13.7148C53.8476 13.337 54.2689 12.9883 54.8501 12.6687C55.8672 12.1166 57.1022 11.6807 58.5551 11.361C60.0371 11.0414 61.49 10.8816 62.9139 10.8816ZM61.6063 28.6219C62.8848 28.6219 63.9164 28.2006 64.701 27.3579C65.4856 26.4861 65.8779 25.3673 65.8779 24.0016V23.2606H65.1369C62.7831 23.2606 61.1268 23.4495 60.1679 23.8272C59.238 24.205 58.773 24.8879 58.773 25.8759C58.773 26.6895 59.0346 27.3579 59.5576 27.8809C60.1097 28.3749 60.7926 28.6219 61.6063 28.6219Z" fill="white"/>
<path d="M86.9701 33.1551C84.7616 33.1551 82.8292 32.7047 81.1729 31.8038C79.5165 30.903 78.2379 29.6244 77.3371 27.9681C76.4654 26.3117 76.0295 24.3648 76.0295 22.1273C76.0295 19.8898 76.4944 17.9283 77.4243 16.2429C78.3832 14.5284 79.7199 13.2063 81.4344 12.2764C83.1489 11.3465 85.1249 10.8816 87.3624 10.8816C88.5247 10.8816 89.6871 11.0414 90.8494 11.361C92.0408 11.6807 93.1015 12.1311 94.0313 12.7123C94.9322 13.2644 95.3826 14.078 95.3826 15.1532C95.3826 15.9087 95.2082 16.5335 94.8595 17.0275C94.5108 17.4924 94.0459 17.7249 93.4647 17.7249C93.0869 17.7249 92.7237 17.6668 92.375 17.5505C92.0554 17.4052 91.6195 17.2018 91.0674 16.9403C90.4571 16.6207 89.905 16.3737 89.411 16.1993C88.9461 16.025 88.4085 15.9378 87.7983 15.9378C86.171 15.9378 84.9214 16.4608 84.0497 17.507C83.207 18.524 82.7856 20.0205 82.7856 21.9965C82.7856 23.9725 83.207 25.4836 84.0497 26.5297C84.9214 27.5758 86.171 28.0989 87.7983 28.0989C88.4085 28.0989 88.9461 28.0262 89.411 27.8809C89.876 27.7066 90.4426 27.445 91.1109 27.0963C91.6631 26.8348 92.0989 26.6459 92.4186 26.5297C92.7382 26.3844 93.0869 26.3117 93.4647 26.3117C94.0168 26.3117 94.4672 26.5587 94.8159 27.0527C95.1937 27.5467 95.3826 28.1715 95.3826 28.927C95.3826 30.0022 94.9322 30.8013 94.0313 31.3244C93.1015 31.9055 92.0263 32.3559 90.8058 32.6756C89.5854 32.9952 88.3068 33.1551 86.9701 33.1551Z" fill="white"/>
<path d="M110.727 28.2732C111.598 28.3313 112.238 28.5493 112.644 28.927C113.051 29.3048 113.255 29.8569 113.255 30.5834C113.255 31.4261 112.921 32.0654 112.252 32.5012C111.584 32.9371 110.625 33.1115 109.375 33.0243L108.155 32.9371C103.07 32.5303 100.527 29.8714 100.527 24.9605V16.3301H98.7835C97.8245 16.3301 97.0981 16.1267 96.6041 15.7198C96.1101 15.284 95.8631 14.6737 95.8631 13.8891C95.8631 13.0755 96.1101 12.4653 96.6041 12.0584C97.0981 11.6226 97.8245 11.4046 98.7835 11.4046H100.527V8.00476C100.527 7.04582 100.818 6.29029 101.399 5.73818C102.009 5.18606 102.823 4.91 103.84 4.91C104.857 4.91 105.656 5.18606 106.237 5.73818C106.818 6.29029 107.109 7.04582 107.109 8.00476V11.4046H110.16C112.136 11.4046 113.124 12.2328 113.124 13.8891C113.124 14.6737 112.877 15.284 112.383 15.7198C111.889 16.1267 111.148 16.3301 110.16 16.3301H107.109V25.44C107.109 26.3117 107.312 26.9801 107.719 27.445C108.126 27.8809 108.722 28.1279 109.506 28.186L110.727 28.2732Z" fill="white"/>
<path d="M118.996 33.0679C118.037 33.0679 117.238 32.8064 116.599 32.2833C115.988 31.7602 115.683 30.9902 115.683 29.9731V14.0635C115.683 13.0464 116.003 12.2764 116.642 11.7533C117.282 11.2303 118.066 10.9687 118.996 10.9687C119.926 10.9687 120.696 11.2303 121.306 11.7533C121.946 12.2764 122.265 13.0464 122.265 14.0635V29.9731C122.265 30.9902 121.946 31.7602 121.306 32.2833C120.696 32.8064 119.926 33.0679 118.996 33.0679ZM118.996 7.4817C117.834 7.4817 116.918 7.19111 116.25 6.60994C115.582 5.99971 115.247 5.18606 115.247 4.16901C115.247 3.15195 115.582 2.35284 116.25 1.77167C116.918 1.19049 117.834 0.899902 118.996 0.899902C120.129 0.899902 121.03 1.20502 121.699 1.81525C122.396 2.39643 122.745 3.18101 122.745 4.16901C122.745 5.18606 122.41 5.99971 121.742 6.60994C121.074 7.19111 120.158 7.4817 118.996 7.4817Z" fill="white"/>
<path d="M141.906 12.843C142.197 12.2328 142.574 11.7824 143.039 11.4918C143.533 11.1722 144.056 11.0123 144.608 11.0123C145.422 11.0123 146.149 11.2884 146.788 11.8405C147.427 12.3636 147.747 13.0029 147.747 13.7584C147.747 14.1943 147.645 14.6156 147.442 15.0224L139.596 31.1064C139.305 31.7457 138.869 32.2397 138.288 32.5884C137.707 32.9081 137.082 33.0679 136.414 33.0679C135.746 33.0679 135.121 32.9081 134.54 32.5884C133.958 32.2397 133.508 31.7457 133.188 31.1064L125.343 15.0224C125.168 14.6156 125.081 14.2233 125.081 13.8456C125.081 13.061 125.415 12.3926 126.084 11.8405C126.781 11.2884 127.551 11.0123 128.394 11.0123C129.004 11.0123 129.556 11.1722 130.05 11.4918C130.544 11.7824 130.936 12.2328 131.227 12.843L136.588 24.5682L141.906 12.843Z" fill="white"/>
<path d="M167.336 26.4425C167.917 26.4425 168.382 26.675 168.731 27.1399C169.108 27.6048 169.297 28.2006 169.297 28.927C169.297 29.421 169.152 29.886 168.861 30.3218C168.571 30.7287 168.164 31.0774 167.641 31.368C166.653 31.891 165.505 32.3269 164.198 32.6756C162.89 32.9952 161.684 33.1551 160.58 33.1551C158.255 33.1551 156.221 32.7047 154.477 31.8038C152.763 30.903 151.441 29.6244 150.511 27.9681C149.581 26.2827 149.116 24.3067 149.116 22.0401C149.116 19.8607 149.566 17.9283 150.467 16.2429C151.368 14.5575 152.618 13.2499 154.216 12.32C155.814 11.361 157.63 10.8816 159.664 10.8816C161.611 10.8816 163.311 11.3174 164.764 12.1892C166.246 13.0319 167.394 14.2524 168.208 15.8506C169.021 17.4198 169.428 19.265 169.428 21.3863C169.428 22.0256 169.268 22.5196 168.949 22.8683C168.658 23.1879 168.237 23.3478 167.685 23.3478H155.48C155.683 25.0622 156.206 26.3117 157.049 27.0963C157.892 27.8519 159.098 28.2296 160.667 28.2296C161.51 28.2296 162.265 28.1279 162.934 27.9245C163.602 27.7211 164.343 27.445 165.156 27.0963C165.563 26.922 165.956 26.7767 166.333 26.6604C166.711 26.5151 167.045 26.4425 167.336 26.4425ZM159.839 15.4147C158.589 15.4147 157.587 15.8215 156.831 16.6352C156.076 17.4198 155.625 18.5676 155.48 20.0786H163.892C163.805 18.5385 163.413 17.3762 162.716 16.5916C162.047 15.807 161.088 15.4147 159.839 15.4147Z" fill="white"/>
<path d="M193.672 16.8967C195.445 17.4198 196.81 18.3351 197.769 19.6428C198.757 20.9213 199.251 22.505 199.251 24.3939C199.251 26.9801 198.292 29.0287 196.374 30.5398C194.486 32.0508 191.87 32.8064 188.529 32.8064H177.108C176.091 32.8064 175.307 32.5303 174.755 31.9782C174.203 31.4261 173.927 30.6415 173.927 29.6244V5.25871C173.927 4.24165 174.203 3.45707 174.755 2.90495C175.307 2.35284 176.091 2.07678 177.108 2.07678H188.093C191.289 2.07678 193.817 2.78872 195.677 4.2126C197.566 5.63647 198.51 7.5834 198.51 10.0534C198.51 11.6516 198.074 13.061 197.203 14.2814C196.36 15.4728 195.183 16.3446 193.672 16.8967ZM180.552 14.5866H186.959C188.703 14.5866 189.981 14.296 190.795 13.7148C191.638 13.1046 192.059 12.1892 192.059 10.9687C192.059 9.69016 191.638 8.76028 190.795 8.17911C189.981 7.56888 188.703 7.26376 186.959 7.26376H180.552V14.5866ZM187.744 27.6194C189.546 27.6194 190.853 27.3143 191.667 26.704C192.481 26.0938 192.887 25.1058 192.887 23.74C192.887 22.3743 192.481 21.3718 191.667 20.7325C190.853 20.0932 189.546 19.7735 187.744 19.7735H180.552V27.6194H187.744Z" fill="white"/>
<path d="M220.76 10.9687C221.777 10.9687 222.576 11.2448 223.157 11.7969C223.767 12.349 224.073 13.1046 224.073 14.0635V30.0603C224.073 30.9611 223.753 31.6876 223.114 32.2397C222.503 32.7918 221.704 33.0679 220.716 33.0679C219.786 33.0679 219.045 32.8064 218.493 32.2833C217.941 31.7602 217.665 31.0628 217.665 30.1911V29.7552C216.997 30.8594 216.11 31.7021 215.006 32.2833C213.931 32.8645 212.711 33.1551 211.345 33.1551C208.642 33.1551 206.623 32.4141 205.286 30.9321C203.978 29.421 203.325 27.1544 203.325 24.1323V14.0635C203.325 13.1046 203.615 12.349 204.196 11.7969C204.807 11.2448 205.62 10.9687 206.637 10.9687C207.654 10.9687 208.454 11.2448 209.035 11.7969C209.616 12.349 209.906 13.1046 209.906 14.0635V24.2631C209.906 25.5417 210.168 26.4861 210.691 27.0963C211.243 27.7066 212.071 28.0117 213.176 28.0117C214.454 28.0117 215.486 27.5758 216.27 26.704C217.084 25.8323 217.491 24.6845 217.491 23.2606V14.0635C217.491 13.1046 217.781 12.349 218.363 11.7969C218.944 11.2448 219.743 10.9687 220.76 10.9687Z" fill="white"/>
<path d="M247.386 1.85884C248.403 1.85884 249.217 2.1349 249.827 2.68701C250.467 3.23913 250.786 3.9656 250.786 4.86642V29.9731C250.786 30.903 250.481 31.6585 249.871 32.2397C249.29 32.7918 248.505 33.0679 247.517 33.0679C246.529 33.0679 245.73 32.7918 245.12 32.2397C244.539 31.6585 244.248 30.903 244.248 29.9731V29.6244C243.609 30.7287 242.693 31.6004 241.502 32.2397C240.34 32.8499 239.017 33.1551 237.535 33.1551C235.705 33.1551 234.063 32.6901 232.61 31.7602C231.186 30.8013 230.067 29.4791 229.254 27.7937C228.469 26.0793 228.077 24.1178 228.077 21.9093C228.077 19.7009 228.469 17.7685 229.254 16.1121C230.067 14.4267 231.186 13.1336 232.61 12.2328C234.034 11.332 235.676 10.8816 237.535 10.8816C238.988 10.8816 240.296 11.1867 241.458 11.7969C242.65 12.4071 243.565 13.2644 244.204 14.3686V4.73565C244.204 3.86389 244.495 3.16648 245.076 2.64343C245.657 2.12037 246.427 1.85884 247.386 1.85884ZM239.453 28.1424C240.993 28.1424 242.17 27.6194 242.984 26.5733C243.827 25.4981 244.248 23.9725 244.248 21.9965C244.248 20.0205 243.827 18.5095 242.984 17.4634C242.17 16.4173 240.993 15.8942 239.453 15.8942C237.913 15.8942 236.722 16.4173 235.879 17.4634C235.036 18.4804 234.615 19.9624 234.615 21.9093C234.615 23.8853 235.036 25.4254 235.879 26.5297C236.722 27.6049 237.913 28.1424 239.453 28.1424Z" fill="white"/>
<path d="M274.423 10.9687C275.411 10.9687 276.196 11.2593 276.777 11.8405C277.387 12.3926 277.692 13.1336 277.692 14.0635V30.4962C277.692 33.9542 276.69 36.5695 274.685 38.342C272.68 40.1146 269.745 41.0009 265.88 41.0009C262.625 41.0009 259.952 40.4197 257.86 39.2574C257.337 38.9668 256.93 38.6036 256.639 38.1677C256.349 37.7609 256.203 37.2959 256.203 36.7729C256.203 36.0464 256.378 35.4507 256.726 34.9858C257.075 34.5208 257.54 34.2884 258.121 34.2884C258.441 34.2884 258.819 34.3465 259.255 34.4627C259.69 34.608 260.141 34.7678 260.606 34.9422C261.536 35.2909 262.393 35.5669 263.177 35.7703C263.962 35.9738 264.805 36.0755 265.706 36.0755C267.565 36.0755 268.946 35.6541 269.846 34.8114C270.747 33.9687 271.198 32.6901 271.198 30.9757V28.6219C270.587 29.7261 269.672 30.5979 268.452 31.2372C267.231 31.8765 265.865 32.1961 264.354 32.1961C262.495 32.1961 260.838 31.7602 259.385 30.8885C257.961 30.0167 256.843 28.7817 256.029 27.1835C255.215 25.5562 254.809 23.6819 254.809 21.5606C254.809 19.4394 255.215 17.5796 256.029 15.9814C256.843 14.3541 257.961 13.1046 259.385 12.2328C260.838 11.332 262.495 10.8816 264.354 10.8816C265.836 10.8816 267.173 11.2012 268.364 11.8405C269.585 12.4507 270.515 13.308 271.154 14.4122V13.9763C271.154 13.0464 271.445 12.32 272.026 11.7969C272.636 11.2448 273.435 10.9687 274.423 10.9687ZM266.272 27.1835C267.812 27.1835 269.004 26.6895 269.846 25.7015C270.718 24.7135 271.154 23.3332 271.154 21.5606C271.154 19.7881 270.718 18.4078 269.846 17.4198C269.004 16.4027 267.812 15.8942 266.272 15.8942C264.732 15.8942 263.526 16.4027 262.654 17.4198C261.783 18.4078 261.347 19.7881 261.347 21.5606C261.347 23.3332 261.783 24.7135 262.654 25.7015C263.526 26.6895 264.732 27.1835 266.272 27.1835Z" fill="white"/>
<path d="M299.93 26.4425C300.512 26.4425 300.977 26.675 301.325 27.1399C301.703 27.6048 301.892 28.2006 301.892 28.927C301.892 29.421 301.747 29.886 301.456 30.3218C301.165 30.7287 300.759 31.0774 300.236 31.368C299.248 31.891 298.1 32.3269 296.792 32.6756C295.484 32.9952 294.279 33.1551 293.174 33.1551C290.85 33.1551 288.815 32.7047 287.072 31.8038C285.357 30.903 284.035 29.6244 283.105 27.9681C282.176 26.2827 281.711 24.3067 281.711 22.0401C281.711 19.8607 282.161 17.9283 283.062 16.2429C283.963 14.5575 285.212 13.2499 286.81 12.32C288.409 11.361 290.225 10.8816 292.259 10.8816C294.206 10.8816 295.906 11.3174 297.359 12.1892C298.841 13.0319 299.989 14.2524 300.802 15.8506C301.616 17.4198 302.023 19.265 302.023 21.3863C302.023 22.0256 301.863 22.5196 301.543 22.8683C301.253 23.1879 300.831 23.3478 300.279 23.3478H288.074C288.278 25.0622 288.801 26.3117 289.644 27.0963C290.486 27.8519 291.692 28.2296 293.261 28.2296C294.104 28.2296 294.86 28.1279 295.528 27.9245C296.196 27.7211 296.937 27.445 297.751 27.0963C298.158 26.922 298.55 26.7767 298.928 26.6604C299.306 26.5151 299.64 26.4425 299.93 26.4425ZM292.433 15.4147C291.184 15.4147 290.181 15.8215 289.426 16.6352C288.67 17.4198 288.22 18.5676 288.074 20.0786H296.487C296.4 18.5385 296.007 17.3762 295.31 16.5916C294.642 15.807 293.683 15.4147 292.433 15.4147Z" fill="white"/>
<path d="M317.472 28.2732C318.344 28.3313 318.983 28.5493 319.39 28.927C319.797 29.3048 320 29.8569 320 30.5834C320 31.4261 319.666 32.0654 318.997 32.5012C318.329 32.9371 317.37 33.1115 316.121 33.0243L314.9 32.9371C309.815 32.5303 307.272 29.8714 307.272 24.9605V16.3301H305.529C304.57 16.3301 303.843 16.1267 303.349 15.7198C302.855 15.284 302.608 14.6737 302.608 13.8891C302.608 13.0755 302.855 12.4653 303.349 12.0584C303.843 11.6226 304.57 11.4046 305.529 11.4046H307.272V8.00476C307.272 7.04582 307.563 6.29029 308.144 5.73818C308.754 5.18606 309.568 4.91 310.585 4.91C311.602 4.91 312.401 5.18606 312.982 5.73818C313.563 6.29029 313.854 7.04582 313.854 8.00476V11.4046H316.905C318.881 11.4046 319.869 12.2328 319.869 13.8891C319.869 14.6737 319.622 15.284 319.128 15.7198C318.634 16.1267 317.893 16.3301 316.905 16.3301H313.854V25.44C313.854 26.3117 314.057 26.9801 314.464 27.445C314.871 27.8809 315.467 28.1279 316.251 28.186L317.472 28.2732Z" fill="white"/>
</svg>
